{"title":"James Bond - 007 - Casino Royale - 1967","uid":5596466,"size":671697267,"categoryP":"video","categoryS":"movies","magnet":"?xt=urn:btih:0dd57a15d28a3fe6712a2aec58fb2968fbb444e0&amp;dn=James+Bond+-+007+-+Casino+Royale+-+1967&amp;tr=udp%3A%2F%2Ftracker.openbittorrent.com%3A80&amp;tr=udp%3A%2F%2Fopen.demonii.com%3A1337&amp;tr=udp%3A%2F%2Ftracker.coppersurfer.tk%3A6969&amp;tr=udp%3A%2F%2Fexodus.desync.com%3A6969","seeders":5,"leechers":0,"uploader":"hiest","files":2,"time":1275008170,"description":"CASINO ROYALE . . . the greatest JAMES BOND! 007 show on earth !\n\n\nFormat : AVI\nFormat/Info : Audio Video Interleave\nFile size : 641 MiB\nDuration : 2h 4mn\nOverall bit rate : 722 Kbps\nWriting application : MEncoder SVN-r29352(20090610-gcc4.3.3)\nWriting library : MPlayer\n\nVideo\nFormat : avc1\nCodec ID : avc1\nDuration : 2h 4mn\nBit rate : 582 Kbps\nWidth : 480 pixels\nHeight : 360 pixels\nDisplay aspect ratio : 4:3\nFrame rate : 25.000 fps\nBits/(Pixel*Frame) : 0.135\nStream size : 516 MiB (81%)\n\nAudio\nID : 1\nFormat : MPEG Audio\nFormat version : Version 1\nFormat profile : Layer 3\nMode : Joint stereo\nFormat_Settings_ModeExtension : MS Stereo\nCodec ID : 55\nCodec ID/Hint : MP3\nDuration : 2h 4mn\nBit rate mode : Constant\nBit rate : 128 Kbps\nChannel(s) : 2 channels\nSampling rate : 44.1 KHz\nStream size : 114 MiB (18%)\nAlignment : Aligned on interleaves\nInterleave, duration : 26 ms (0.65 video frame)\nInterleave, preload duration : 522 ms\nWriting library : LAME3.98","torrent":{"xt":"urn:btih:0dd57a15d28a3fe6712a2aec58fb2968fbb444e0","amp;dn":"James+Bond+-+007+-+Casino+Royale+-+1967","amp;tr":["udp%3A%2F%2Ftracker.openbittorrent.com%3A80","udp%3A%2F%2Fopen.demonii.com%3A1337","udp%3A%2F%2Ftracker.coppersurfer.tk%3A6969","udp%3A%2F%2Fexodus.desync.com%3A6969"],"infoHash":"0dd57a15d28a3fe6712a2aec58fb2968fbb444e0","infoHashBuffer":{"type":"Buffer","data":[13,213,122,21,210,138,63,230,113,42,42,236,88,251,41,104,251,180,68,224]},"announce":[],"urlList":[]}}